<svg xmlns="http://www.w3.org/2000/svg" width="1200" height="900" viewBox="0 0 1200 900">
<rect x="0" y="0" width="1200" height="900" rx="0" fill="#edf3ef" stroke="none" stroke-width="2"/>
<rect x="28" y="24" width="1144" height="852" rx="24" fill="white" stroke="none" stroke-width="2"/>
<text x="64" y="72" font-family="DejaVu Sans,sans-serif" font-size="26" fill="#173f40" font-weight="700">Khám phá trường mầm non HULA</text>
<text x="64" y="102" font-family="DejaVu Sans,sans-serif" font-size="15" fill="#617777" font-weight="400">Chọn một phòng trên bản đồ để bắt đầu trải nghiệm.</text>
<text x="1120" y="70" font-family="DejaVu Sans,sans-serif" font-size="28" fill="#173f40" font-weight="400">×</text>
<rect x="58" y="130" width="732" height="672" rx="20" fill="#f4f6ed" stroke="none" stroke-width="2"/>
<rect x="359" y="262" width="124" height="488" rx="2" fill="#e5dcc9" stroke="none" stroke-width="2"/>
<rect x="303" y="156" width="236" height="108" rx="12" fill="#173f40" stroke="none" stroke-width="2"/>
<text x="323" y="185" font-family="DejaVu Sans,sans-serif" font-size="17" fill="white" font-weight="700">R7 · Phòng Đón Bé</text>
<text x="323" y="210" font-family="DejaVu Sans,sans-serif" font-size="13" fill="#d9eeeb" font-weight="400">Bàn giao cuối tuần</text>
<rect x="372" y="242" width="98" height="24" rx="2" fill="#e5dcc9" stroke="none" stroke-width="2"/>
<text x="322" y="233" font-family="DejaVu Sans,sans-serif" font-size="13" fill="#80e0d5" font-weight="700">● Bạn đang ở đây</text>
<rect x="83" y="287" width="263" height="133" rx="10" fill="#dde9db" stroke="#bdcbc0" stroke-width="2"/>
<text x="98" y="315" font-family="DejaVu Sans,sans-serif" font-size="17" fill="#173f40" font-weight="700">R5 · Góc Gọn Gàng</text>
<text x="98" y="338" font-family="DejaVu Sans,sans-serif" font-size="13" fill="#52696a" font-weight="400">Túi bảo quản</text>
<rect x="102" y="358" width="48" height="44" rx="5" fill="#8ebcb9" stroke="none" stroke-width="2"/>
<rect x="106" y="362" width="40" height="10" rx="3" fill="#eaf4ed" stroke="none" stroke-width="2"/>
<rect x="167" y="358" width="48" height="44" rx="5" fill="#8ebcb9" stroke="none" stroke-width="2"/>
<rect x="171" y="362" width="40" height="10" rx="3" fill="#eaf4ed" stroke="none" stroke-width="2"/>
<rect x="232" y="358" width="48" height="44" rx="5" fill="#8ebcb9" stroke="none" stroke-width="2"/>
<rect x="236" y="362" width="40" height="10" rx="3" fill="#eaf4ed" stroke="none" stroke-width="2"/>
<rect x="340" y="371" width="23" height="30" rx="0" fill="#e5dcc9" stroke="none" stroke-width="2"/>
<rect x="496" y="287" width="263" height="133" rx="10" fill="#d5e9e6" stroke="#bdcbc0" stroke-width="2"/>
<text x="511" y="315" font-family="DejaVu Sans,sans-serif" font-size="17" fill="#173f40" font-weight="700">R6 · Lớp HULA</text>
<text x="511" y="338" font-family="DejaVu Sans,sans-serif" font-size="13" fill="#52696a" font-weight="400">Phối hợp sản phẩm</text>
<rect x="515" y="358" width="48" height="44" rx="5" fill="#8ebcb9" stroke="none" stroke-width="2"/>
<rect x="519" y="362" width="40" height="10" rx="3" fill="#eaf4ed" stroke="none" stroke-width="2"/>
<rect x="580" y="358" width="48" height="44" rx="5" fill="#8ebcb9" stroke="none" stroke-width="2"/>
<rect x="584" y="362" width="40" height="10" rx="3" fill="#eaf4ed" stroke="none" stroke-width="2"/>
<rect x="645" y="358" width="48" height="44" rx="5" fill="#8ebcb9" stroke="none" stroke-width="2"/>
<rect x="649" y="362" width="40" height="10" rx="3" fill="#eaf4ed" stroke="none" stroke-width="2"/>
<text x="654" y="408" font-family="DejaVu Sans,sans-serif" font-size="11" fill="#173f40" font-weight="400">✓ Đã ghé</text>
<rect x="478" y="371" width="23" height="30" rx="0" fill="#e5dcc9" stroke="none" stroke-width="2"/>
<rect x="83" y="446" width="263" height="133" rx="10" fill="#f1e6d5" stroke="#bdcbc0" stroke-width="2"/>
<text x="98" y="474" font-family="DejaVu Sans,sans-serif" font-size="17" fill="#173f40" font-weight="700">R3 · Lớp Mầm</text>
<text x="98" y="497" font-family="DejaVu Sans,sans-serif" font-size="13" fill="#52696a" font-weight="400">Nệm foam gấp</text>
<rect x="102" y="517" width="48" height="44" rx="5" fill="#8ebcb9" stroke="none" stroke-width="2"/>
<rect x="106" y="521" width="40" height="10" rx="3" fill="#eaf4ed" stroke="none" stroke-width="2"/>
<rect x="167" y="517" width="48" height="44" rx="5" fill="#8ebcb9" stroke="none" stroke-width="2"/>
<rect x="171" y="521" width="40" height="10" rx="3" fill="#eaf4ed" stroke="none" stroke-width="2"/>
<rect x="232" y="517" width="48" height="44" rx="5" fill="#8ebcb9" stroke="none" stroke-width="2"/>
<rect x="236" y="521" width="40" height="10" rx="3" fill="#eaf4ed" stroke="none" stroke-width="2"/>
<rect x="340" y="530" width="23" height="30" rx="0" fill="#e5dcc9" stroke="none" stroke-width="2"/>
<rect x="496" y="446" width="263" height="133" rx="10" fill="#e4e3f0" stroke="#bdcbc0" stroke-width="2"/>
<text x="511" y="474" font-family="DejaVu Sans,sans-serif" font-size="17" fill="#173f40" font-weight="700">R4 · Lớp Mây</text>
<text x="511" y="497" font-family="DejaVu Sans,sans-serif" font-size="13" fill="#52696a" font-weight="400">Túi ngủ</text>
<rect x="515" y="517" width="48" height="44" rx="5" fill="#8ebcb9" stroke="none" stroke-width="2"/>
<rect x="519" y="521" width="40" height="10" rx="3" fill="#eaf4ed" stroke="none" stroke-width="2"/>
<rect x="580" y="517" width="48" height="44" rx="5" fill="#8ebcb9" stroke="none" stroke-width="2"/>
<rect x="584" y="521" width="40" height="10" rx="3" fill="#eaf4ed" stroke="none" stroke-width="2"/>
<rect x="645" y="517" width="48" height="44" rx="5" fill="#8ebcb9" stroke="none" stroke-width="2"/>
<rect x="649" y="521" width="40" height="10" rx="3" fill="#eaf4ed" stroke="none" stroke-width="2"/>
<rect x="478" y="530" width="23" height="30" rx="0" fill="#e5dcc9" stroke="none" stroke-width="2"/>
<rect x="83" y="605" width="263" height="133" rx="10" fill="#dcebd9" stroke="#bdcbc0" stroke-width="2"/>
<text x="98" y="633" font-family="DejaVu Sans,sans-serif" font-size="17" fill="#173f40" font-weight="700">R1 · Lớp Lá</text>
<text x="98" y="656" font-family="DejaVu Sans,sans-serif" font-size="13" fill="#52696a" font-weight="400">Cotton Cara</text>
<rect x="102" y="676" width="48" height="44" rx="5" fill="#8ebcb9" stroke="none" stroke-width="2"/>
<rect x="106" y="680" width="40" height="10" rx="3" fill="#eaf4ed" stroke="none" stroke-width="2"/>
<rect x="167" y="676" width="48" height="44" rx="5" fill="#8ebcb9" stroke="none" stroke-width="2"/>
<rect x="171" y="680" width="40" height="10" rx="3" fill="#eaf4ed" stroke="none" stroke-width="2"/>
<rect x="232" y="676" width="48" height="44" rx="5" fill="#8ebcb9" stroke="none" stroke-width="2"/>
<rect x="236" y="680" width="40" height="10" rx="3" fill="#eaf4ed" stroke="none" stroke-width="2"/>
<rect x="340" y="689" width="23" height="30" rx="0" fill="#e5dcc9" stroke="none" stroke-width="2"/>
<rect x="496" y="605" width="263" height="133" rx="10" fill="#f3e9c9" stroke="#bdcbc0" stroke-width="2"/>
<text x="511" y="633" font-family="DejaVu Sans,sans-serif" font-size="17" fill="#173f40" font-weight="700">R2 · Lớp Nắng</text>
<text x="511" y="656" font-family="DejaVu Sans,sans-serif" font-size="13" fill="#52696a" font-weight="400">Cotton Satin</text>
<rect x="515" y="676" width="48" height="44" rx="5" fill="#8ebcb9" stroke="none" stroke-width="2"/>
<rect x="519" y="680" width="40" height="10" rx="3" fill="#eaf4ed" stroke="none" stroke-width="2"/>
<rect x="580" y="676" width="48" height="44" rx="5" fill="#8ebcb9" stroke="none" stroke-width="2"/>
<rect x="584" y="680" width="40" height="10" rx="3" fill="#eaf4ed" stroke="none" stroke-width="2"/>
<rect x="645" y="676" width="48" height="44" rx="5" fill="#8ebcb9" stroke="none" stroke-width="2"/>
<rect x="649" y="680" width="40" height="10" rx="3" fill="#eaf4ed" stroke="none" stroke-width="2"/>
<rect x="478" y="689" width="23" height="30" rx="0" fill="#e5dcc9" stroke="none" stroke-width="2"/>
<path d="M 359 704 H 411 V 389 H 484 M 411 389 V 267" fill="none" stroke="#087f8b" stroke-width="4" stroke-dasharray="7 7"/>
<text x="389" y="780" font-family="DejaVu Sans,sans-serif" font-size="12" fill="#173f40" font-weight="700">LỐI VÀO</text>
<rect x="818" y="130" width="320" height="72" rx="12" fill="#e6f4ef" stroke="none" stroke-width="2"/>
<text x="837" y="158" font-family="DejaVu Sans,sans-serif" font-size="15" fill="#173f40" font-weight="700">Tuyến khám phá nhanh</text>
<text x="837" y="184" font-family="DejaVu Sans,sans-serif" font-size="17" fill="#07828c" font-weight="700">R1  →  R6  →  R7</text>
<rect x="818" y="224" width="320" height="385" rx="16" fill="#f6f8f5" stroke="#dce6df" stroke-width="2"/>
<text x="840" y="261" font-family="DejaVu Sans,sans-serif" font-size="12" fill="#07828c" font-weight="700">PHÒNG ĐANG CHỌN</text>
<text x="840" y="297" font-family="DejaVu Sans,sans-serif" font-size="21" fill="#173f40" font-weight="700">R7 · Phòng Đón Bé</text>
<rect x="858" y="321" width="240" height="119" rx="12" fill="#e8dfcb" stroke="none" stroke-width="2"/>
<rect x="912" y="348" width="130" height="52" rx="8" fill="#c79e71" stroke="none" stroke-width="2"/>
<rect x="951" y="359" width="47" height="28" rx="6" fill="#078799" stroke="none" stroke-width="2"/>
<circle cx="977" cy="332" r="12" fill="#80b8b0"/><circle cx="977" cy="425" r="12" fill="#c7b499"/>
<text x="840" y="472" font-family="DejaVu Sans,sans-serif" font-size="15" fill="#173f40" font-weight="400">Nhận đúng túi của bé Mây,</text>
<text x="840" y="497" font-family="DejaVu Sans,sans-serif" font-size="15" fill="#173f40" font-weight="400">kiểm tra và bàn giao cùng cô An.</text>
<rect x="840" y="531" width="276" height="52" rx="26" fill="#087f8b" stroke="none" stroke-width="2"/>
<text x="880" y="564" font-family="DejaVu Sans,sans-serif" font-size="15" fill="white" font-weight="700">Tiếp tục tại phòng này</text>
<text x="837" y="651" font-family="DejaVu Sans,sans-serif" font-size="14" fill="#173f40" font-weight="400">● Vị trí hiện tại</text>
<text x="837" y="680" font-family="DejaVu Sans,sans-serif" font-size="14" fill="#173f40" font-weight="400">✓ Phòng đã ghé</text>
<text x="837" y="709" font-family="DejaVu Sans,sans-serif" font-size="14" fill="#173f40" font-weight="400">┄ Tuyến khám phá nhanh</text>
<text x="64" y="843" font-family="DejaVu Sans,sans-serif" font-size="13" fill="#617777" font-weight="400">Mặt bằng minh họa · Vị trí phòng ổn định khi đổi nhân vật</text>
<text x="846" y="843" font-family="DejaVu Sans,sans-serif" font-size="12" fill="#617777" font-weight="400">Thiết kế đề xuất • Instruction 10</text>
</svg>